Coordinates
version=1
nRows=11
nColumns=46
inDegrees=yes

Units are S.I. units (second, meters, Newtons, ...)
Angles are in degrees.

endheader
time	pelvis_tilt	pelvis_list	pelvis_rotation	pelvis_tx	pelvis_ty	pelvis_tz	bb_angle	bb_tx	bb_ty	bb_tz	hip_flexion_r	hip_adduction_r	hip_rotation_r	knee_angle_r	knee_angle_r_beta	ankle_angle_r	subtalar_angle_r	mtp_angle_r	crank_angle_r	hip_flexion_l	hip_adduction_l	hip_rotation_l	knee_angle_l	knee_angle_l_beta	ankle_angle_l	subtalar_angle_l	mtp_angle_l	crank_angle_l	lumbar_extension	lumbar_bending	lumbar_rotation	arm_flex_r	arm_add_r	arm_rot_r	elbow_flex_r	pro_sup_r	wrist_flex_r	wrist_dev_r	arm_flex_l	arm_add_l	arm_rot_l	elbow_flex_l	pro_sup_l	wrist_flex_l	wrist_dev_l
      5.00500000	    -32.03503954	     11.94030945	      1.53106536	      0.39424179	      1.13189931	     -0.26899813	      0.00000000	      0.50000000	      0.00000000	      0.25000000	     40.04941851	    -14.05850546	      3.44930971	     26.34834479	      0.45986537	    -12.47911766	    -10.89338965	      0.00000000	      0.00000000	     71.57888875	      7.07257439	     -1.57257277	    103.70091030	      1.80992232	    -16.29255926	     -8.19187687	      0.00000000	      0.00000000	    -57.97534668	     -7.42466524	      5.83598409	     -8.11818557	    -50.45137466	    -17.31401844	    117.58573848	     51.47710770	      0.00000000	      0.00000000	     39.96045928	    -22.71256414	     26.92069205	     96.71928364	     52.17654357	      0.00000000	      0.00000000
      5.01000000	    -31.98618582	     12.00980000	      2.83348021	      0.39433829	      1.13155032	     -0.26883686	      0.00000000	      0.50000000	      0.00000000	      0.25000000	     38.28049405	    -14.98122727	      1.82329434	     24.66582599	      0.43049988	    -13.75513328	    -10.51547010	      0.00000000	      0.00000000	     73.08395994	      7.84200732	     -1.35396593	    105.00416575	      1.83266842	    -16.20873933	     -7.83727073	      0.00000000	      0.00000000	    -58.04602381	     -7.00953122	      4.88979591	     -7.74568284	    -49.45325134	    -17.12486903	    117.20268574	     51.44897685	      0.00000000	      0.00000000	     40.24253548	    -23.11784810	     27.49633740	     97.02367230	     52.28339085	      0.00000000	      0.00000000
      5.01500000	    -32.28898516	     12.30268691	      3.82222642	      0.39413917	      1.13088528	     -0.26818602	      0.00000000	      0.50000000	      0.00000000	      0.25000000	     37.11547426	    -15.82779632	      0.87691311	     23.21504934	      0.40517905	    -14.80084637	     -9.81262025	      0.00000000	      0.00000000	     74.90051255	      8.25572276	     -1.60539694	    106.14214010	      1.85252982	    -16.05710627	     -7.54714090	      0.00000000	      0.00000000	    -57.85282687	     -7.06077698	      4.05621189	     -7.75999451	    -48.94455462	    -16.92437436	    116.99833883	     51.44214231	      0.00000000	      0.00000000	     40.53670141	    -23.17835650	     27.69007575	     97.24042692	     52.32845632	      0.00000000	      0.00000000
      5.02000000	    -32.32502589	     12.34049717	      5.08599828	      0.39419259	      1.13084227	     -0.26795084	      0.00000000	      0.50000000	      0.00000000	      0.25000000	     35.56668650	    -16.66488056	     -0.82829073	     21.91405834	      0.38247247	    -15.77412117	     -8.94533724	      0.00000000	      0.00000000	     76.38916562	      8.86391522	     -1.55407520	    107.15234558	      1.87016123	    -15.87044739	     -7.12484662	      0.00000000	      0.00000000	    -57.80693367	     -6.58436106	      1.62850611	     -3.28827864	    -48.23166059	    -12.57588075	    115.08943020	     51.71837170	      0.00000000	      0.00000000	     39.45739178	    -25.09860467	     26.85995089	     99.10308049	     52.56179439	      0.00000000	      0.00000000
      5.02500000	    -32.68313303	     12.40487877	      6.05276724	      0.39377556	      1.13056063	     -0.26729502	      0.00000000	      0.50000000	      0.00000000	      0.25000000	     34.55800336	    -17.26301977	     -1.80060692	     20.77834630	      0.36265056	    -16.79076757	     -8.15598223	      0.00000000	      0.00000000	     78.17766849	      9.13156141	     -1.69340534	    107.99532865	      1.88487406	    -15.75979263	     -6.87192878	      0.00000000	      0.00000000	    -57.60821702	     -6.46207929	      0.99679742	     -3.41346606	    -47.82790772	    -12.51761251	    114.95053306	     51.71083362	      0.00000000	      0.00000000	     39.73897643	    -25.06644965	     26.95631282	     99.37075682	     52.61088263	      0.00000000	      0.00000000
      5.03000000	    -32.80525486	     12.17977286	      7.20088707	      0.39366708	      1.13083365	     -0.26715849	      0.00000000	      0.50000000	      0.00000000	      0.25000000	     33.24002040	    -17.74592462	     -3.49330359	     19.77682244	      0.34517067	    -17.70051771	     -7.11796674	      0.00000000	      0.00000000	     79.66983280	      9.55826356	     -1.51176352	    108.69024383	      1.89700262	    -15.59991176	     -6.32311269	      0.00000000	      0.00000000	    -57.65111010	     -5.87195793	      0.39814257	     -3.14619700	    -47.07401753	    -12.55518955	    114.51597097	     51.64603121	      0.00000000	      0.00000000	     39.79098488	    -25.28147640	     27.21371572	     99.93937522	     52.72846602	      0.00000000	      0.00000000
      5.03500000	    -33.17957798	     12.09589857	      8.02553105	      0.39328721	      1.13106566	     -0.26654929	      0.00000000	      0.50000000	      0.00000000	      0.25000000	     32.43980920	    -18.10315831	     -4.29464546	     18.96594795	      0.33101824	    -18.66878483	     -6.19331499	      0.00000000	      0.00000000	     81.31124368	      9.62941092	     -1.65565406	    109.18934999	      1.90571367	    -15.47662306	     -6.14726051	      0.00000000	      0.00000000	    -57.55008059	     -5.69011330	     -0.09476297	     -3.10594428	    -46.80406400	    -12.54298575	    114.33927200	     51.62302474	      0.00000000	      0.00000000	     40.12396819	    -25.27812782	     27.20926835	    100.31930679	     52.78395879	      0.00000000	      0.00000000
      5.04000000	    -33.31785803	     11.86533979	      9.08503645	      0.39320075	      1.13183328	     -0.26640323	      0.00000000	      0.50000000	      0.00000000	      0.25000000	     31.32831540	    -18.47528575	     -5.59493068	     18.30488740	      0.31948055	    -19.48395243	     -5.11822575	      0.00000000	      0.00000000	     82.63374332	     10.02952379	     -1.54026097	    109.52375612	      1.91155015	    -15.41687832	     -5.88677417	      0.00000000	      0.00000000	    -57.69052414	     -5.16896815	     -0.64907998	     -2.76831781	    -46.10424731	    -12.55904155	    113.83484417	     51.54579109	      0.00000000	      0.00000000	     40.05685270	    -25.51853319	     27.31965020	    101.02169936	     52.90856992	      0.00000000	      0.00000000
      5.04500000	    -33.56681795	     11.74144336	      9.82644434	      0.39298500	      1.13266649	     -0.26541634	      0.00000000	      0.50000000	      0.00000000	      0.25000000	     30.55701944	    -18.64308403	     -5.99071712	     17.85113036	      0.31156100	    -20.21833254	     -4.54242598	      0.00000000	      0.00000000	     83.90016539	      9.96117998	     -1.73024605	    109.65329506	      1.91381103	    -15.13818817	     -5.73297151	      0.00000000	      0.00000000	    -57.75492579	     -4.97074765	     -1.24460114	     -2.62591082	    -45.82563176	    -12.55493342	    113.67734393	     51.52287191	      0.00000000	      0.00000000	     40.35890424	    -25.55022000	     27.27053015	    101.38416869	     52.95655134	      0.00000000	      0.00000000
      5.05000000	    -33.74754117	     11.58678820	     10.74329555	      0.39276814	      1.13392354	     -0.26510503	      0.00000000	      0.50000000	      0.00000000	      0.25000000	     29.80245603	    -18.95594140	     -6.72242747	     17.64490428	      0.30796168	    -21.14458670	     -3.93972381	      0.00000000	      0.00000000	     84.95201720	     10.11506873	     -1.92234044	    109.55787021	      1.91214556	    -14.80504673	     -5.47309565	      0.00000000	      0.00000000	    -57.90850021	     -4.51433646	     -1.81803988	     -2.20938671	    -45.21999712	    -12.53312296	    113.36838304	     51.47646880	      0.00000000	      0.00000000	     40.46469743	    -25.76142711	     27.25729556	    102.04897032	     53.05963208	      0.00000000	      0.00000000
      5.05500000	    -33.91851030	     11.48211620	     11.65338290	      0.39241020	      1.13527349	     -0.26517608	      0.00000000	      0.50000000	      0.00000000	      0.25000000	     29.31060687	    -19.36217298	     -7.28321464	     18.03950131	      0.31484869	    -21.44600682	     -3.23550325	      0.00000000	      0.00000000	     85.87038664	     10.45006394	     -2.07459387	    109.33376905	      1.90823425	    -14.28737268	     -5.31032462	      0.00000000	      0.00000000	    -58.07733601	     -3.87812885	     -5.76204338	      5.32895951	    -44.28176288	     -5.38592991	    110.48225213	     51.76382151	      0.00000000	      0.00000000	     36.96465947	    -29.10903053	     23.64201227	    106.26134424	     53.30083063	      0.00000000	      0.00000000
